# xmcd
#
# Track frame offsets:
#	150
#	13399
#	28054
#	41702
#	54025
#	71005
#	87662
#	99697
#	118336
#	128794
#	142743
#	161439
#	176727
#
# Disc length: 2593 seconds
#
# Revision: 0
# Processed by: cddbd v1.5PL3 Copyright (c) Steve Scherf et al.
# Submitted via: dBpowerAMP V4.0
#
DISCID=b60a1f0d
DTITLE=Dina Buendia - Una pagina mas
DYEAR=2003
DGENRE=Folklore
TTITLE0=Volveras
TTITLE1=Dile
TTITLE2=Una pagina mas
TTITLE3=Se me olvido otra vez
TTITLE4=A puro dolor
TTITLE5=Tatuajes
TTITLE6=El milagro de tus ojos
TTITLE7=Costumbres
TTITLE8=La puerta
TTITLE9=Ya lo se
TTITLE10=Secreto de amor
TTITLE11=La diferencia
TTITLE12=Desden
EXTD=
EXTT0=
EXTT1=
EXTT2=
EXTT3=
EXTT4=
EXTT5=
EXTT6=
EXTT7=
EXTT8=
EXTT9=
EXTT10=
EXTT11=
EXTT12=
PLAYORDER=
